<?xml version="1.0" encoding="utf-8"?>
<!-- Generator: Adobe Illustrator 28.0.0, SVG Export Plug-In . SVG Version: 6.00 Build 0)  -->
<svg version="1.1" id="Ebene_1" xmlns="http://www.w3.org/2000/svg" xmlns:xlink="http://www.w3.org/1999/xlink" x="0px" y="0px"
	 viewBox="0 0 60 43" style="enable-background:new 0 0 60 43;" xml:space="preserve">
<style type="text/css">
	.st0{opacity:0.63;}
	.st1{fill:url(#Rechteck_8_00000125572727649043868820000005909708167860196536_);}
</style>
<g id="Gruppe_49" transform="translate(-226 -399)">
	<path id="Rechteck_9" class="st0" d="M244,438h24c1.1,0,2,0.9,2,2l0,0c0,1.1-0.9,2-2,2h-24c-1.1,0-2-0.9-2-2l0,0
		C242,438.9,242.9,438,244,438z"/>
	
		<linearGradient id="Rechteck_8_00000039100002566578523810000014402000292158919341_" gradientUnits="userSpaceOnUse" x1="452.0552" y1="1.1079" x2="452.9332" y2="0.2369" gradientTransform="matrix(60 0 0 36 -26894 393)">
		<stop  offset="0" style="stop-color:#000000;stop-opacity:0.63"/>
		<stop  offset="0.611" style="stop-color:#000000;stop-opacity:0.627"/>
		<stop  offset="1" style="stop-color:#545454;stop-opacity:0.627"/>
	</linearGradient>
	<path id="Rechteck_8" style="fill:url(#Rechteck_8_00000039100002566578523810000014402000292158919341_);" d="M232,399h48
		c3.3,0,6,2.7,6,6v24c0,3.3-2.7,6-6,6h-48c-3.3,0-6-2.7-6-6v-24C226,401.7,228.7,399,232,399z"/>
</g>
</svg>
