<svg xmlns="http://www.w3.org/2000/svg" xmlns:xlink="http://www.w3.org/1999/xlink" width="79.702" height="107.864" viewBox="0 0 79.702 107.864">
  <defs>
    <linearGradient id="linear-gradient" x1="-0.011" y1="0.775" x2="1.045" y2="-0.074" gradientUnits="objectBoundingBox">
      <stop offset="0" stop-color="#d14c20"/>
      <stop offset="1" stop-color="#eb9627"/>
    </linearGradient>
    <filter id="Pfad_4" x="0" y="0" width="79.702" height="107.864" filterUnits="userSpaceOnUse">
      <feOffset dy="3" input="SourceAlpha"/>
      <feGaussianBlur stdDeviation="3" result="blur"/>
      <feFlood flood-opacity="0.161" result="color"/>
      <feComposite operator="out" in="SourceGraphic" in2="blur"/>
      <feComposite operator="in" in="color"/>
      <feComposite operator="in" in2="SourceGraphic"/>
    </filter>
  </defs>
  <g data-type="innerShadowGroup">
    <path id="Pfad_4-2" data-name="Pfad 4" d="M157.9,48.677H177.2V67.983H157.9V48.677ZM177.2,97.561V78.078H157.9c0,23.379-6.022,29.578-30.11,29.578v19.306h19.306c0-24.8,7.085-29.4,30.11-29.4Zm-30.11-29.578c-24.619,0-30.11,6.2-30.11,29.578H97.5V78.078c22.494,0,30.11-4.605,30.11-29.578h19.306V67.983ZM97.5,137.058h19.306v19.306H97.5V137.058Zm0-29.4h19.306v19.306H97.5V107.657Zm60.4,0H177.2v19.306H157.9V107.657ZM97.5,48.677V67.983h19.306V48.677Z" transform="translate(-97.5 -48.5)" fill-rule="evenodd" fill="url(#linear-gradient)"/>
    <g transform="matrix(1, 0, 0, 1, 0, 0)" filter="url(#Pfad_4)">
      <path id="Pfad_4-3" data-name="Pfad 4" d="M157.9,48.677H177.2V67.983H157.9V48.677ZM177.2,97.561V78.078H157.9c0,23.379-6.022,29.578-30.11,29.578v19.306h19.306c0-24.8,7.085-29.4,30.11-29.4Zm-30.11-29.578c-24.619,0-30.11,6.2-30.11,29.578H97.5V78.078c22.494,0,30.11-4.605,30.11-29.578h19.306V67.983ZM97.5,137.058h19.306v19.306H97.5V137.058Zm0-29.4h19.306v19.306H97.5V107.657Zm60.4,0H177.2v19.306H157.9V107.657ZM97.5,48.677V67.983h19.306V48.677Z" transform="translate(-97.5 -48.5)" fill="#fff" fill-rule="evenodd"/>
    </g>
  </g>
</svg>
