<?xml version="1.0" encoding="utf-8"?>
<!-- Generator: Adobe Illustrator 28.0.0, SVG Export Plug-In . SVG Version: 6.00 Build 0)  -->
<svg version="1.1" id="Ebene_1" xmlns="http://www.w3.org/2000/svg" xmlns:xlink="http://www.w3.org/1999/xlink" x="0px" y="0px"
	 viewBox="0 0 68 68" style="enable-background:new 0 0 68 68;" xml:space="preserve">
<style type="text/css">
	.st0{fill:#864918;}
</style>
<g>
	<path class="st0" d="M34,22.5c-4.3,0-7.8,3.5-7.8,7.8c0,4.3,3.5,7.8,7.8,7.8c4.3,0,7.8-3.5,7.8-7.8C41.8,26,38.3,22.5,34,22.5z"/>
	<path class="st0" d="M31.4,16.8c-7.4,1.4-12.2,8.5-10.7,15.9c0,0,0,0,0,0.1c0,0,0,0.2,0.1,0.4v0c0.2,0.9,0.5,1.8,0.9,2.7
		c0,0,0,0,0,0c1.5,3.7,4.9,9.2,12.3,15.3c7.4-6.1,10.8-11.7,12.3-15.3c0,0,0,0,0,0c0.4-0.9,0.7-1.8,0.9-2.7v0c0-0.2,0.1-0.3,0.1-0.4
		c0,0,0,0,0,0h0c0.3-1.7,0.3-3.5,0-5.2C45.9,20.2,38.8,15.3,31.4,16.8z M34,40.3c-5.5,0-10-4.5-10-10s4.5-10,10-10
		c5.5,0,10,4.5,10,10C44,35.8,39.5,40.3,34,40.3z"/>
	<path class="st0" d="M34,0C15.2,0,0,15.2,0,34c0,18.8,15.2,34,34,34s34-15.2,34-34C68,15.2,52.8,0,34,0z M49.5,33.1
		c0,0.1,0,0.2-0.1,0.5c-0.2,1.1-0.6,2.1-1.1,3.1c-1.7,4-5.5,10.2-13.7,16.8c-0.4,0.3-1,0.3-1.4,0c-8.2-6.6-12-12.8-13.7-16.8
		c-0.5-1-0.8-2-1.1-3.1c-0.1-0.3-0.1-0.5-0.1-0.5c-0.2-1-0.3-2-0.3-3c0-8.7,7.1-15.8,15.8-15.8c8.7,0,15.8,7.1,15.8,15.8
		C49.8,31.1,49.7,32.1,49.5,33.1z"/>
</g>
</svg>
