<?xml version="1.0" encoding="utf-8"?>
<!-- Generator: Adobe Illustrator 28.0.0, SVG Export Plug-In . SVG Version: 6.00 Build 0)  -->
<svg version="1.1" id="Ebene_1" xmlns="http://www.w3.org/2000/svg" xmlns:xlink="http://www.w3.org/1999/xlink" x="0px" y="0px"
	 viewBox="0 0 368.3 370.2" style="enable-background:new 0 0 368.3 370.2;" xml:space="preserve">
<style type="text/css">
	
		.st0{opacity:0.27;fill:url(#Vereinigungsmenge_2-2_00000176732410926658692150000006911933280400108721_);enable-background:new    ;}
</style>
<linearGradient id="Vereinigungsmenge_2-2_00000024697134611292899470000014370792684373570995_" gradientUnits="userSpaceOnUse" x1="118.5623" y1="249.4208" x2="119.6183" y2="250.2698" gradientTransform="matrix(305.276 0 0 -307.19 -36177.3398 76949)">
	<stop  offset="0" style="stop-color:#D14C20"/>
	<stop  offset="1" style="stop-color:#EB9627"/>
</linearGradient>
<path id="Vereinigungsmenge_2-2" style="opacity:0.27;fill:url(#Vereinigungsmenge_2-2_00000024697134611292899470000014370792684373570995_);enable-background:new    ;" d="
	M262.3,373.2v-43h43v43H262.3z M195,370.5v-43h43v43L195,370.5z M127.7,370.5v-43h43v43L127.7,370.5z M63.9,370.5v-43h43v43
	L63.9,370.5z M0,370.5v-43h43v43L0,370.5z M262.3,305.7v-43h43v43L262.3,305.7z M195,304.3v-43h43v43L195,304.3z M127.7,304.3v-43
	h43v43L127.7,304.3z M63.9,303.6v-43h43v43L63.9,303.6z M0,303.6v-43h43v43L0,303.6z M195.2,240.7v-43.4h-0.4
	c54.8,0,67.1-13.8,67.1-65.8h43.4v43.4c-50.1,0-67.1,10.3-67.1,65.8L195.2,240.7z M262.3,240.3v-43h43v43H262.3z M127.7,240.3v-43
	h43v43H127.7z M63.9,238.7v-43h43v43H63.9z M0,238.7v-43h43v43H0z M127.7,174.8v-43.4c51.3,0,67.1-10.3,67.1-65.4h43v43
	c-53.7,0-67.1,13.8-67.1,65.8L127.7,174.8z M63.9,173.8v-43h43v43H63.9z M0,173.8v-43h43v43H0z M262.3,109V66h43v43H262.3z
	 M127.7,109V66h43v43H127.7z M63.9,109V66h43v43H63.9z M0,109V66h43v43H0z"/>
</svg>
