<?xml version="1.0" encoding="UTF-8"?>
<svg id="Layer_1" data-name="Layer 1" xmlns="http://www.w3.org/2000/svg" xmlns:xlink="http://www.w3.org/1999/xlink" viewBox="0 0 44.965096400587754 44.231299999998555">
  <defs>
    <style>
      .cls-1 {
        fill: url(#GradientFill_1);
        fill-rule: evenodd;
        stroke-width: 0px;
      }
    </style>
    <linearGradient id="GradientFill_1" data-name="GradientFill 1" x1="6.720625548668977" y1="39.26832499451757" x2="46.483463952403412" y2="-4.002985179590304" gradientUnits="userSpaceOnUse">
      <stop offset="0" stop-color="#d14c20"/>
      <stop offset="1" stop-color="#eb9627"/>
    </linearGradient>
  </defs>
  <path class="cls-1" d="m34.035296676697726,0h10.929799723890028v10.930199999999786h-10.929799723890028V0h0Zm10.929799723890028,27.580899999999929v-10.930100000000493h-10.929799723890028c0,13.18420000000242-3.411199913826749,16.650700000001052-17.0174995701027,16.650700000001052v10.929799999998068h10.929799723890028c0-14.04059999999663,3.993199899123283-16.650399999998626,17.0174995701027-16.650399999998626h0ZM27.947596830485054,10.930199999999786c-13.904199648750364,0-17.017799570094212,3.47150000000056-17.017799570094212,16.650700000000143H0v-10.930100000000493c12.712497215356052,0,17.017797106595026-2.634899999999107,17.017797106595026-16.650799999999435h10.929799723890028v10.930199999999786h0ZM0,33.301500000000487h10.929797260390842v10.929799999998068H0v-10.929799999998068h0Zm34.035296676697726,0h10.929799723890028v10.929799999998068h-10.929799723890028v-10.929799999998068h0ZM0,0v10.930199999999786h10.929797260390842V0H0Z"/>
</svg>