<?xml version="1.0" encoding="utf-8"?>
<!-- Generator: Adobe Illustrator 28.0.0, SVG Export Plug-In . SVG Version: 6.00 Build 0)  -->
<svg version="1.1" id="Ebene_1" xmlns="http://www.w3.org/2000/svg" xmlns:xlink="http://www.w3.org/1999/xlink" x="0px" y="0px"
	 viewBox="0 0 68 68" style="enable-background:new 0 0 68 68;" xml:space="preserve">
<style type="text/css">
	.st0{fill:#864918;}
</style>
<g>
	<path class="st0" d="M51,43.9l-4.9-4.9l0,0c-0.3-0.4-0.8-0.6-1.3-0.6c-0.5,0-1,0.3-1.3,0.7l-3,3c-0.3,0.4-0.8,0.6-1.3,0.6
		c-0.3,0-0.6-0.1-0.9-0.2c0,0-0.1,0-0.1-0.1c-0.3-0.2-0.6-0.3-0.9-0.5c-0.4-0.2-0.7-0.4-1.1-0.6c-3-1.9-5.6-4.3-7.8-7.1l0,0
		c-1.2-1.4-2.1-3-2.9-4.7l0-0.1c-0.3-0.7-0.1-1.5,0.5-2c0,0,0,0,0,0c0.8-0.7,1.5-1.4,2.2-2.2c0.3-0.2,0.5-0.5,0.8-0.8
		c0.1-0.1,0.3-0.2,0.4-0.4c0.5-0.8,0.4-1.8-0.4-2.4l-2.4-2.4c-0.3-0.3-0.6-0.6-0.8-0.9c-0.5-0.6-1.1-1.1-1.6-1.6l0,0
		c-0.3-0.4-0.8-0.6-1.3-0.6c-0.5,0-1,0.3-1.3,0.6l-3,3c-0.7,0.7-1.1,1.6-1.2,2.6c-0.1,1.9,0.2,3.8,1,5.5c1.5,3.9,3.6,7.5,6.4,10.6
		c3.6,4.3,8,7.8,13,10.2c2.1,1.1,4.5,1.8,6.9,2.1c0.1,0,0.3,0,0.4,0c1.3,0,2.5-0.5,3.3-1.4c0.5-0.6,1.1-1.2,1.7-1.8
		c0.4-0.4,0.7-0.7,1.1-1.1c0.1-0.1,0.2-0.2,0.3-0.3C51.9,45.6,51.8,44.5,51,43.9z"/>
	<path class="st0" d="M34,0C15.2,0,0,15.2,0,34c0,18.8,15.2,34,34,34s34-15.2,34-34C68,15.2,52.8,0,34,0z M52.8,48.4
		c-0.4,0.4-0.8,0.8-1.1,1.1c-0.5,0.5-1.1,1-1.5,1.6c0,0,0,0,0,0c-1.3,1.4-3.2,2.2-5.1,2.2c-0.2,0-0.4,0-0.6,0
		c-2.7-0.3-5.3-1-7.8-2.3c-5.3-2.6-10-6.3-13.8-10.8c-2.9-3.3-5.2-7.1-6.8-11.3c-0.8-2.1-1.2-4.3-1.1-6.6c0.1-1.6,0.8-3,1.9-4.1l3-3
		l0,0c0.8-0.8,1.9-1.3,3-1.3c1.1,0,2.2,0.5,3,1.3c0.6,0.5,1.1,1.1,1.7,1.6c0.3,0.3,0.5,0.6,0.8,0.8l2.4,2.4c0.1,0.1,0.3,0.3,0.4,0.4
		c1.5,1.7,1.3,4.2-0.4,5.7c-0.2,0.3-0.5,0.5-0.7,0.8c-0.6,0.7-1.3,1.4-2,2c0.6,1.3,1.4,2.6,2.4,3.8c2,2.6,4.5,4.8,7.3,6.6
		c0.3,0.2,0.6,0.3,0.9,0.5c0.2,0.1,0.5,0.2,0.7,0.4l2.8-2.8c0.8-0.8,1.9-1.3,3-1.4c1.1,0,2.2,0.5,3,1.4l4.8,4.9
		c0.8,0.8,1.3,1.9,1.4,3C54.1,46.4,53.6,47.5,52.8,48.4z"/>
</g>
</svg>
