<?xml version="1.0" encoding="utf-8"?>
<!-- Generator: Adobe Illustrator 28.0.0, SVG Export Plug-In . SVG Version: 6.00 Build 0)  -->
<svg version="1.1" id="Layer_1" xmlns="http://www.w3.org/2000/svg" xmlns:xlink="http://www.w3.org/1999/xlink" x="0px" y="0px"
	 viewBox="0 0 45 60.9" style="enable-background:new 0 0 45 60.9;" xml:space="preserve">
<style type="text/css">
	.st0{fill-rule:evenodd;clip-rule:evenodd;fill:url(#SVGID_1_);}
</style>
<linearGradient id="SVGID_1_" gradientUnits="userSpaceOnUse" x1="-0.4949" y1="12.9291" x2="47.0069" y2="64.6223" gradientTransform="matrix(1 0 0 -1 0 60.0497)">
	<stop  offset="0" style="stop-color:#D14C20"/>
	<stop  offset="1" style="stop-color:#EB9627"/>
</linearGradient>
<path class="st0" d="M34,0H45v10.9H34V0L34,0z M45,27.6V16.7H34c0,13.2-3.4,16.7-17,16.7v10.9h10.9C27.9,30.2,31.9,27.6,45,27.6
	L45,27.6z M27.9,10.9c-13.9,0-17,3.5-17,16.7H0V16.7C12.7,16.7,17,14,17,0h10.9V10.9C27.9,10.9,27.9,10.9,27.9,10.9z M0,50h10.9
	v10.9H0V50L0,50z M0,33.3h10.9v10.9H0V33.3C0,33.3,0,33.3,0,33.3z M34,33.3H45v10.9H34V33.3C34,33.3,34,33.3,34,33.3z M0,0v10.9
	h10.9V0H0z"/>
</svg>
