<?xml version="1.0" encoding="UTF-8"?>
<svg id="Layer_1" data-name="Layer 1" xmlns="http://www.w3.org/2000/svg" xmlns:xlink="http://www.w3.org/1999/xlink" viewBox="0 0 147.72609510260645 94.832300000000032">
  <defs>
    <style>
      .cls-1 {
        fill: url(#GradientFill_1);
      }

      .cls-1, .cls-2, .cls-3 {
        fill-rule: evenodd;
        stroke-width: 0px;
      }

      .cls-2 {
        fill: #fff;
      }

      .cls-3 {
        fill: url(#GradientFill_1-2);
      }
    </style>
    <linearGradient id="GradientFill_1" data-name="GradientFill 1" x1="50.885546815160524" y1="47.120569904527656" x2="98.387421089772573" y2="-4.572629527512099" gradientUnits="userSpaceOnUse">
      <stop offset="0" stop-color="#d14c20"/>
      <stop offset="1" stop-color="#eb9627"/>
    </linearGradient>
    <linearGradient id="GradientFill_1-2" data-name="GradientFill 1" x1="73.256664302528407" y1="81.105082581976603" x2="73.83028598467132" y2="77.142698101917077" xlink:href="#GradientFill_1"/>
  </defs>
  <path class="cls-1" d="m85.415796676697028,0h10.929799723890028v10.930199999999786h-10.929799723890028V0h0Zm10.929799723890028,27.580899999999929v-10.930100000000493h-10.929799723890028c0,13.184200000000601-3.41119991382584,16.650700000000143-17.017499570101791,16.650700000000143v10.929799999999886h10.929799723890028c0-14.040599999999358,3.993199899123283-16.650399999999536,17.017499570101791-16.650399999999536h0Zm-17.017499570101791-16.650700000000143c-13.904199648750364,0-17.017799570094212,3.471499999999651-17.017799570094212,16.650700000000143h-10.929797260390842v-10.930100000000493c12.712497215356052,0,17.017797106595026-2.634900000000016,17.017797106595026-16.650799999999435h10.929799723890028v10.930199999999786h0Zm-27.947596830485054,39.021999999999935h10.929797260390842v10.929799999999886h-10.929797260390842v-10.929799999999886h0Zm0-16.650700000000143h10.929797260390842v10.929799999999886h-10.929797260390842v-10.929799999999886h0Zm34.035296676696817,0h10.929799723890028v10.929799999999886h-10.929799723890028v-10.929799999999886h0ZM51.380500000000211,0v10.930199999999786h10.929797260390842V0h-10.929797260390842Z"/>
  <path class="cls-2" d="m6.825200000000223,78.243099999999686c1.437799999999697,0,2.689800000000105.236899999999878,3.756199999999808.710900000000038,1.066400000000613.473899999999048,1.883899999999812,1.153399999999237,2.452800000000025,2.038099999999758.568699999999808.884700000000521.853300000000672,1.935499999999593.853300000000672,3.152099999999336,0,1.200800000000527-.284600000000864,2.247300000000905-.853300000000672,3.140000000001237-.568900000000212.89259999999922-1.386399999999412,1.575999999999112-2.452800000000025,2.049999999999272-1.066399999999703.473900000000867-2.318400000000111.710900000000038-3.756199999999808.710900000000038h-3.744499999999789v4.787200000000666H0v-16.589200000000346h6.825200000000223Zm131.871695330703005,3.080700000000434c-2.784999929644982,6.504899999999907-3.31879991616006,7.723799999999756-5.782399853924289,13.508499999999913h-3.176199919762439l7.465599811403081-16.589500000000044h3.033399923369871l7.488799810817,16.589500000000044h-3.22269991858775c-2.574099934972764-5.956500000000233-2.944299925620726-6.873800000001211-5.806499853315472-13.508499999999913h0Zm-23.179399414439104-3.080700000000434h3.080599922177498v16.589200000000346h-3.080599922177498v-16.589200000000346h0Zm-23.202999413842917,0h3.080699922174972v13.98240000000078h8.673699780883908v2.606799999999566h-11.75439970305888v-16.589200000000346h0Zm-12.443599685648223,14.006199999999808v2.583000000000538h-12.442099685686117v-9.692800000000716h11.09169971980009v2.535299999999552h-8.010699797632697v4.574500000000626h9.361099763518723Zm-26.876896816772387,2.583000000000538l-4.502900000000409-6.304000000000087-4.455200000000332,6.304000000000087h-3.507599999999911l6.161700000000565-8.460600000000341-5.82970000000023-8.128600000000006h3.483699999999772l4.242100000000391,5.901099999999133,4.194700000000012-5.901099999999133h3.341497416712627l-5.806197416713076,8.010099999999511,6.232797405936253,8.579100000000835h-3.554897405935662Zm-27.018200000000434-16.589200000000346h3.080700000000434v16.589200000000346h-3.080700000000434v-16.589200000000346h0Zm-19.292899999999463,9.195299999999406c1.34309999999914,0,2.362099999999373-.284599999999045,3.057199999999284-.853299999998853.695099999999911-.568900000000212,1.042900000000373-1.382400000000416,1.042900000000373-2.44090000000142,0-1.05869999999959-.347800000000461-1.872299999999086-1.042900000000373-2.441199999999299-.695099999999911-.568600000000515-1.714100000000144-.852899999999863-3.057199999999284-.852899999999863h-3.602200000000266v6.588299999999435h3.602200000000266Z"/>
  <polygon class="cls-3" points="67.428797131086867 80.825999999999112 67.428797131086867 78.242799999999988 79.539296825149904 78.242799999999988 79.539296825149904 80.825999999999112 70.50979705325426 80.825999999999112 67.428797131086867 80.825999999999112"/>
</svg>