<?xml version="1.0" encoding="utf-8"?>
<!-- Generator: Adobe Illustrator 28.0.0, SVG Export Plug-In . SVG Version: 6.00 Build 0)  -->
<svg version="1.1" id="Ebene_1" xmlns="http://www.w3.org/2000/svg" xmlns:xlink="http://www.w3.org/1999/xlink" x="0px" y="0px"
	 viewBox="0 0 322.5 94.4" style="enable-background:new 0 0 322.5 94.4;" xml:space="preserve">
<style type="text/css">
	.st0{fill-rule:evenodd;clip-rule:evenodd;fill:url(#SVGID_1_);}
	.st1{fill-rule:evenodd;clip-rule:evenodd;fill:url(#SVGID_00000106119322544878999770000005400408017650655130_);}
	.st2{fill-rule:evenodd;clip-rule:evenodd;fill:url(#SVGID_00000119805990243559233660000015660800807847993774_);}
	.st3{fill-rule:evenodd;clip-rule:evenodd;fill:url(#SVGID_00000168801447267783835010000011014778813087079306_);}
	.st4{fill-rule:evenodd;clip-rule:evenodd;}
	.st5{fill-rule:evenodd;clip-rule:evenodd;fill:url(#SVGID_00000183968496833254042060000007665064970650711725_);}
</style>
<g id="Ebene_1">
	<g>
		<linearGradient id="SVGID_1_" gradientUnits="userSpaceOnUse" x1="163.4286" y1="-2.8015" x2="166.9257" y2="110.5948">
			<stop  offset="0" style="stop-color:#D14C20"/>
			<stop  offset="1" style="stop-color:#EB9627"/>
		</linearGradient>
		<path class="st0" d="M51.8,9.1h13.7v13.7H51.8V9.1z M65.5,43.7V29.9H51.8c0,16.6-4.3,21-21.3,21v13.7h13.7
			C44.1,47,49.1,43.7,65.5,43.7L65.5,43.7z M44.1,22.8c-17.4,0-21.3,4.4-21.3,21H9V29.9c15.9,0,21.3-3.3,21.3-21H44v13.8H44.1z
			 M9,71.7h13.7v13.7H9V71.7z M9,50.9h13.7v13.7H9V50.9L9,50.9z M51.8,50.9h13.7v13.7H51.8V50.9L51.8,50.9z M9,9.1v13.7h13.7V9.1H9z
			"/>
		
			<linearGradient id="SVGID_00000016769329343165158930000016509102688070264707_" gradientUnits="userSpaceOnUse" x1="163.4286" y1="-2.8015" x2="166.9257" y2="110.5948">
			<stop  offset="0" style="stop-color:#D14C20"/>
			<stop  offset="1" style="stop-color:#EB9627"/>
		</linearGradient>
		<path style="fill-rule:evenodd;clip-rule:evenodd;fill:url(#SVGID_00000016769329343165158930000016509102688070264707_);" d="
			M109.4,34.6c2-0.1,3.9,0.3,5.8,1.1c1.5,0.7,2.8,1.7,3.8,3c0.9,1.4,1.4,3.1,1.4,4.8c0,1.7-0.4,3.3-1.4,4.7
			c-0.9,1.4-2.2,2.5-3.8,3.2c-1.8,0.8-3.8,1.1-5.8,1.1h-5.6v7.3h-4.7V34.6H109.4z M308.9,39.3c-4.2,9.8-5,11.7-8.8,20.4h-4.8
			l11.4-25.1h4.5l11.4,25.1h-4.8C313.9,50.8,313.3,49.3,308.9,39.3L308.9,39.3z M273.9,34.6h4.7v25.1h-4.7
			C273.9,59.8,273.9,34.6,273.9,34.6z M238.8,34.6h4.7v21.2h13.2v3.9h-17.9L238.8,34.6L238.8,34.6z M219.9,55.8v3.9h-18.8V45.1h16.8
			v3.8h-12.1v7L219.9,55.8L219.9,55.8z M179.1,59.8l-6.8-9.5l-6.8,9.5h-5.3l9.4-12.9l-8.8-12.3h5.3l6.4,8.9l6.4-8.9h5l-8.8,12.1
			l9.4,13H179.1z M138.3,34.6h4.7v25.1h-4.7V34.6z M109.1,48.6c1.7,0.1,3.3-0.4,4.7-1.4c1-0.9,1.6-2.3,1.5-3.6
			c0.1-1.4-0.4-2.8-1.5-3.6c-1.3-1-3-1.5-4.7-1.4h-5.4v10L109.1,48.6L109.1,48.6z"/>
		
			<linearGradient id="SVGID_00000147194142365501320040000017165511277199832507_" gradientUnits="userSpaceOnUse" x1="163.4286" y1="-2.8015" x2="166.9257" y2="110.5948">
			<stop  offset="0" style="stop-color:#D14C20"/>
			<stop  offset="1" style="stop-color:#EB9627"/>
		</linearGradient>
		<path style="fill-rule:evenodd;clip-rule:evenodd;fill:url(#SVGID_00000147194142365501320040000017165511277199832507_);" d="
			M201.1,38.6v-3.9h18.3v3.9L201.1,38.6L201.1,38.6z"/>
	</g>
	<g>
		
			<linearGradient id="SVGID_00000013895940845722682980000005098288976425839779_" gradientUnits="userSpaceOnUse" x1="-783.8762" y1="580.7854" x2="-782.8202" y2="581.6344" gradientTransform="matrix(56.457 0 0 -76.405 44263.6875 44443.1445)">
			<stop  offset="0" style="stop-color:#D14C20"/>
			<stop  offset="1" style="stop-color:#EB9627"/>
		</linearGradient>
		<path style="fill-rule:evenodd;clip-rule:evenodd;fill:url(#SVGID_00000013895940845722682980000005098288976425839779_);" d="
			M51.8,9.1h13.7v13.7H51.8V9.1z M65.5,43.7V29.9H51.8c0,16.6-4.3,21-21.3,21v13.7h13.7C44.1,47,49.1,43.7,65.5,43.7L65.5,43.7z
			 M44.1,22.8c-17.4,0-21.3,4.4-21.3,21H9V29.9c15.9,0,21.3-3.3,21.3-21H44v13.8H44.1z M9,71.7h13.7v13.7H9V71.7z M9,50.9h13.7v13.7
			H9V50.9L9,50.9z M51.8,50.9h13.7v13.7H51.8V50.9L51.8,50.9z M9,9.1v13.7h13.7V9.1H9z"/>
		<path class="st4" d="M109.4,34.6c2-0.1,3.9,0.3,5.8,1.1c1.5,0.7,2.8,1.7,3.8,3c0.9,1.4,1.4,3.1,1.4,4.8c0,1.7-0.4,3.3-1.4,4.7
			c-0.9,1.4-2.2,2.5-3.8,3.2c-1.8,0.8-3.8,1.1-5.8,1.1h-5.6v7.3h-4.7V34.6H109.4z M308.9,39.3c-4.2,9.8-5,11.7-8.8,20.4h-4.8
			l11.4-25.1h4.5l11.4,25.1h-4.8C313.9,50.8,313.3,49.3,308.9,39.3L308.9,39.3z M273.9,34.6h4.7v25.1h-4.7
			C273.9,59.8,273.9,34.6,273.9,34.6z M238.8,34.6h4.7v21.2h13.2v3.9h-17.9L238.8,34.6L238.8,34.6z M219.9,55.8v3.9h-18.8V45.1h16.8
			v3.8h-12.1v7L219.9,55.8L219.9,55.8z M179.1,59.8l-6.8-9.5l-6.8,9.5h-5.3l9.4-12.9l-8.8-12.3h5.3l6.4,8.9l6.4-8.9h5l-8.8,12.1
			l9.4,13H179.1z M138.3,34.6h4.7v25.1h-4.7V34.6z M109.1,48.6c1.7,0.1,3.3-0.4,4.7-1.4c1-0.9,1.6-2.3,1.5-3.6
			c0.1-1.4-0.4-2.8-1.5-3.6c-1.3-1-3-1.5-4.7-1.4h-5.4v10L109.1,48.6L109.1,48.6z"/>
		
			<linearGradient id="SVGID_00000057861266455422389970000008783691207968422558_" gradientUnits="userSpaceOnUse" x1="-753.9551" y1="461.8891" x2="-753.9081" y2="463.4131" gradientTransform="matrix(18.318 0 0 -3.936 14020.8584 1857.0088)">
			<stop  offset="0" style="stop-color:#D14C20"/>
			<stop  offset="1" style="stop-color:#EB9627"/>
		</linearGradient>
		<path style="fill-rule:evenodd;clip-rule:evenodd;fill:url(#SVGID_00000057861266455422389970000008783691207968422558_);" d="
			M201.1,38.6v-3.9h18.3v3.9L201.1,38.6L201.1,38.6z"/>
	</g>
</g>
</svg>
