<svg xmlns="http://www.w3.org/2000/svg" xmlns:xlink="http://www.w3.org/1999/xlink" width="335.734" height="448" viewBox="0 0 335.734 448">
  <defs>
    <filter id="Pfad_50" x="0" y="0" width="335.734" height="448" filterUnits="userSpaceOnUse">
      <feOffset input="SourceAlpha"/>
      <feGaussianBlur stdDeviation="3" result="blur"/>
      <feFlood flood-opacity="0.361"/>
      <feComposite operator="in" in2="blur"/>
      <feComposite in="SourceGraphic"/>
    </filter>
  </defs>
  <g transform="matrix(1, 0, 0, 1, 0, 0)" filter="url(#Pfad_50)">
    <path id="Pfad_50-2" data-name="Pfad 50" d="M338.272,49.206h76.962v76.962H338.272V49.206Zm76.962,194.877V166.415H338.272c0,93.2-24.007,117.915-120.033,117.915v76.962H295.2c0-98.851,28.243-117.209,120.033-117.209ZM295.2,126.168c-98.144,0-120.033,24.713-120.033,117.915H97.5V166.415c89.672,0,120.033-18.358,120.033-117.915H294.5v77.668ZM97.5,401.538h76.962V478.5H97.5V401.538Zm0-117.209h76.962v76.962H97.5V284.329Zm240.772,0h76.962v76.962H338.272V284.329ZM97.5,49.206v76.962h76.962V49.206Z" transform="translate(-88.5 -39.5)" fill="#e17824" fill-rule="evenodd" opacity="0.184"/>
  </g>
</svg>
