<?xml version="1.0" encoding="utf-8"?>
<!-- Generator: Adobe Illustrator 28.0.0, SVG Export Plug-In . SVG Version: 6.00 Build 0)  -->
<svg version="1.1" id="Ebene_1" xmlns="http://www.w3.org/2000/svg" xmlns:xlink="http://www.w3.org/1999/xlink" x="0px" y="0px"
	 viewBox="0 0 53 53" style="enable-background:new 0 0 53 53;" xml:space="preserve">
<style type="text/css">
	.st0{fill:#D55B21;}
</style>
<g>
	<circle class="st0" cx="35.3" cy="17.1" r="1.5"/>
	<ellipse transform="matrix(0.9871 -0.1602 0.1602 0.9871 -3.866 4.5842)" class="st0" cx="26.5" cy="26.3" rx="4.7" ry="4.7"/>
	<path class="st0" d="M26.5,0C11.9,0,0,11.9,0,26.5S11.9,53,26.5,53S53,41.1,53,26.5S41.1,0,26.5,0z M41.7,30.8
		c0,7.6-3,10.7-10.7,10.7h-9.1c-7.6,0-10.7-3-10.7-10.7v-9.1c0-7.6,3-10.7,10.7-10.7h9.1c7.6,0,10.7,3,10.7,10.7V30.8z"/>
</g>
</svg>
