<?xml version="1.0" encoding="utf-8"?>
<!-- Generator: Adobe Illustrator 28.0.0, SVG Export Plug-In . SVG Version: 6.00 Build 0)  -->
<svg version="1.1" id="Ebene_1" xmlns="http://www.w3.org/2000/svg" xmlns:xlink="http://www.w3.org/1999/xlink" x="0px" y="0px"
	 viewBox="0 0 53 53" style="enable-background:new 0 0 53 53;" xml:space="preserve">
<style type="text/css">
	.st0{fill:#D55B21;}
</style>
<g>
	<polygon class="st0" points="43.8,36.4 43.8,18.5 32.9,25.5 	"/>
	<path class="st0" d="M28.5,28.2c-1.2,0.8-2.8,0.8-4.1-0.1L21.2,26L9.4,37.8c0.4,0.8,1.2,1.4,2.1,1.4h30l0,0c0.9,0,1.8-0.6,2.1-1.4
		L31.9,26.1L28.5,28.2z"/>
	<polygon class="st0" points="9.2,17.8 9.2,36.4 20.3,25.3 	"/>
	<path class="st0" d="M41.5,13.8h-30c-1.3,0-2.3,1-2.3,2.3v0.3l15.9,10.8c0.8,0.6,1.9,0.6,2.8,0l15.9-10.1v-1
		C43.8,14.8,42.8,13.8,41.5,13.8z"/>
	<path class="st0" d="M26.5,0C11.9,0,0,11.9,0,26.5S11.9,53,26.5,53S53,41.1,53,26.5S41.1,0,26.5,0z M45,36.9c0,1.9-1.5,3.5-3.5,3.5
		h-30c-1.9,0-3.5-1.5-3.5-3.5V16.1c0-1.9,1.5-3.5,3.5-3.5h30c0,0,0,0,0,0c1.9,0,3.5,1.5,3.5,3.5V36.9z"/>
</g>
</svg>
