<?xml version="1.0" encoding="utf-8"?>
<!-- Generator: Adobe Illustrator 28.0.0, SVG Export Plug-In . SVG Version: 6.00 Build 0)  -->
<svg version="1.1" id="Ebene_1" xmlns="http://www.w3.org/2000/svg" xmlns:xlink="http://www.w3.org/1999/xlink" x="0px" y="0px"
	 viewBox="0 0 53 53" style="enable-background:new 0 0 53 53;" xml:space="preserve">
<style type="text/css">
	.st0{fill:#D55B21;}
</style>
<g>
	<path class="st0" d="M35.5,30.7L35.5,30.7c-0.3-0.3-0.6-0.5-1-0.5c-0.4,0-0.8,0.2-1,0.5l-2.3,2.3c-0.3,0.3-0.6,0.5-1,0.5
		c-0.2,0-0.5-0.1-0.7-0.2c0,0-0.1,0-0.1,0c-0.2-0.1-0.4-0.2-0.7-0.4c-0.3-0.1-0.6-0.3-0.8-0.5c-2.3-1.5-4.4-3.4-6.1-5.5l0,0
		c-0.9-1.1-1.6-2.3-2.2-3.6l0-0.1c-0.2-0.5-0.1-1.2,0.4-1.5c0,0,0,0,0,0c0.6-0.5,1.1-1.1,1.7-1.7c0.2-0.2,0.4-0.4,0.6-0.6
		c0.1-0.1,0.2-0.2,0.3-0.3c0.4-0.6,0.3-1.4-0.3-1.8l-1.9-1.9c-0.2-0.2-0.4-0.4-0.6-0.7c-0.4-0.4-0.8-0.8-1.2-1.2l0,0
		c-0.3-0.3-0.6-0.5-1-0.5c-0.4,0-0.8,0.2-1,0.5l-2.3,2.3c-0.6,0.5-0.9,1.3-0.9,2c-0.1,1.5,0.2,2.9,0.8,4.3c1.2,3,2.8,5.8,4.9,8.2
		c2.8,3.3,6.2,6,10.1,7.9c1.7,0.9,3.5,1.4,5.3,1.6c0.1,0,0.2,0,0.3,0c1,0,1.9-0.4,2.6-1.1c0.4-0.5,0.9-0.9,1.3-1.4
		c0.3-0.3,0.6-0.5,0.8-0.8v0c0.1-0.1,0.2-0.1,0.2-0.2c0.5-0.6,0.3-1.4-0.2-1.9L35.5,30.7z"/>
	<path class="st0" d="M26.5,0C11.9,0,0,11.9,0,26.5S11.9,53,26.5,53S53,41.1,53,26.5S41.1,0,26.5,0z M40.6,37.9
		c-0.3,0.3-0.6,0.6-0.9,0.9c-0.4,0.4-0.8,0.8-1.2,1.2c0,0,0,0,0,0c-1,1.1-2.4,1.7-3.9,1.7c-0.1,0-0.3,0-0.4,0
		c-2.1-0.2-4.1-0.8-6-1.8c-4.1-2-7.8-4.9-10.7-8.4c-2.2-2.6-4-5.5-5.2-8.7c-0.7-1.6-1-3.3-0.9-5.1c0.1-1.2,0.6-2.3,1.5-3.2l2.3-2.3
		l0,0c0.6-0.6,1.4-1,2.3-1c0.9,0,1.7,0.4,2.3,1c0.4,0.4,0.9,0.8,1.3,1.3c0.2,0.2,0.4,0.4,0.6,0.6l1.9,1.9c0.1,0.1,0.2,0.2,0.3,0.3
		c1.1,1.3,1,3.3-0.3,4.4c-0.2,0.2-0.4,0.4-0.6,0.6c-0.5,0.5-1,1-1.6,1.6c0.5,1,1.1,2,1.8,2.9c1.6,2,3.5,3.7,5.6,5.1
		c0.2,0.1,0.4,0.2,0.7,0.4c0.2,0.1,0.3,0.2,0.5,0.3l2.2-2.1c0.6-0.7,1.4-1,2.3-1.1c0.9,0,1.7,0.4,2.3,1.1l3.7,3.8
		c0.7,0.6,1,1.5,1.1,2.3C41.6,36.4,41.3,37.3,40.6,37.9z"/>
</g>
</svg>
