<svg xmlns="http://www.w3.org/2000/svg" xmlns:xlink="http://www.w3.org/1999/xlink" width="339.66" height="123.08" viewBox="0 0 339.66 123.08">
  <defs>
    <linearGradient id="linear-gradient" x1="0.5" x2="0.5" y2="1" gradientUnits="objectBoundingBox">
      <stop offset="0" stop-color="#d55b21"/>
      <stop offset="1" stop-color="#e17824"/>
    </linearGradient>
  </defs>
  <path id="Pfad_41" data-name="Pfad 41" d="M217.145,163h31.79V139.88h15.13V115.23h-15.13V43.15h-33.15l-61.71,73.44,5.27,23.29h57.8Zm-28.56-47.6,28.56-34.34V115.4Zm133.79,49.64c28.56,0,48.96-13.77,48.96-35.19v-.34c0-14.45-8.33-22.78-20.4-28.22,9.35-5.27,16.32-13.09,16.32-26.01v-.34c0-19.04-18.19-32.98-44.88-32.98s-44.71,13.94-44.71,32.98v.34c0,12.92,7.14,20.74,16.15,26.01-12.92,5.44-20.23,14.11-20.23,28.56v.34C273.585,150.93,293.815,165.04,322.375,165.04Zm0-72.76c-8.84,0-14.62-5.61-14.62-13.09v-.34c0-6.63,5.61-12.58,14.62-12.58,9.35,0,14.79,5.95,14.79,12.58v.34C337.165,86.67,331.215,92.28,322.375,92.28Zm0,48.11c-11.05,0-17.17-6.12-17.17-13.43v-.34c0-7.99,6.97-13.09,17.17-13.09s17.17,5.1,17.17,13.09v.34C339.545,134.27,333.425,140.39,322.375,140.39Zm77.14,23.45c11.9,0,19.81-5.95,19.81-15.96v-.14c0-9.17-7-12.81-18.2-15.26-6.86-1.47-8.54-2.59-8.54-4.76v-.14c0-1.89,1.61-3.15,4.9-3.15a23.4,23.4,0,0,1,13.72,4.83l6.79-9.59c-5.32-4.27-11.76-6.51-20.16-6.51-11.76,0-18.97,6.51-18.97,15.68v.14c0,10.08,8.12,12.95,18.48,15.33,6.72,1.68,8.33,2.66,8.33,4.76v.14c0,2.17-1.96,3.36-5.67,3.36a25.271,25.271,0,0,1-15.89-5.88l-7.56,9.03C382.715,161.11,390.765,163.84,399.515,163.84Zm39.97-.07a19.161,19.161,0,0,0,9.24-2.24V151.17a11.665,11.665,0,0,1-5.04,1.26c-2.45,0-3.64-1.05-3.64-3.78V135.77h8.82V125.13h-8.82v-9.59h-13.23v9.59h-4.48v10.64h4.48v15.47C426.815,160.27,431.435,163.77,439.485,163.77Zm29.47.07c5.67,0,8.89-2.73,11.48-5.88V163h13.3V111.9h-13.3v17.85a14.326,14.326,0,0,0-11.55-5.46c-8.96,0-16.73,7.49-16.73,19.81v.14C452.155,156.35,459.995,163.84,468.955,163.84Zm3.99-11.13c-4.2,0-7.77-3.57-7.77-8.61v-.14c0-5.04,3.57-8.61,7.77-8.61,4.34,0,7.77,3.57,7.77,8.61v.14C480.715,149.14,477.285,152.71,472.945,152.71Z" transform="translate(-154.075 -41.96)" fill="url(#linear-gradient)"/>
</svg>
