<?xml version="1.0" encoding="utf-8"?>
<!-- Generator: Adobe Illustrator 28.1.0, SVG Export Plug-In . SVG Version: 6.00 Build 0)  -->
<svg version="1.1" id="Ebene_1" xmlns="http://www.w3.org/2000/svg" xmlns:xlink="http://www.w3.org/1999/xlink" x="0px" y="0px"
	 viewBox="0 0 342 286" style="enable-background:new 0 0 342 286;" xml:space="preserve">
<style type="text/css">
	.st0{fill:#B2B2B2;}
	.st1{fill:#FFFFFF;}
	.st2{fill:url(#Rechteck_35-2_00000124128790778319250900000006825080569841655210_);}
	.st3{fill:url(#SVGID_1_);}
	.st4{fill:none;}
	.st5{enable-background:new    ;}
</style>
<g id="Gruppe_48" transform="translate(-141 -594)">
	<g id="Gruppe_27" transform="translate(29 7)">
		<path id="Rechteck_35" class="st0" d="M139,636h137c14.9,0,27,12.1,27,27v183c0,14.9-12.1,27-27,27H139c-14.9,0-27-12.1-27-27V663
			C112,648.1,124.1,636,139,636z"/>
		<path id="Rechteck_36" class="st1" d="M156,653h103c2.8,0,5,2.2,5,5v4c0,2.8-2.2,5-5,5H156c-2.8,0-5-2.2-5-5v-4
			C151,655.2,153.2,653,156,653z"/>
		<path id="Rechteck_37" class="st1" d="M132,680h103c2.8,0,5,2.2,5,5v4c0,2.8-2.2,5-5,5H132c-2.8,0-5-2.2-5-5v-4
			C127,682.2,129.2,680,132,680z"/>
		<path id="Rechteck_38" class="st1" d="M132,697h33c2.8,0,5,2.2,5,5v4c0,2.8-2.2,5-5,5h-33c-2.8,0-5-2.2-5-5v-4
			C127,699.2,129.2,697,132,697z"/>
		<path id="Rechteck_40" class="st1" d="M185,697h98c2.8,0,5,2.2,5,5v4c0,2.8-2.2,5-5,5h-98c-2.8,0-5-2.2-5-5v-4
			C180,699.2,182.2,697,185,697z"/>
		<path id="Rechteck_39" class="st1" d="M132,714h103c2.8,0,5,2.2,5,5v4c0,2.8-2.2,5-5,5H132c-2.8,0-5-2.2-5-5v-4
			C127,716.2,129.2,714,132,714z"/>
		<path id="Rechteck_42" class="st1" d="M129,765h103c2.8,0,5,2.2,5,5v4c0,2.8-2.2,5-5,5H129c-2.8,0-5-2.2-5-5v-4
			C124,767.2,126.2,765,129,765z"/>
		<path id="Rechteck_44" class="st1" d="M129,782h85c2.8,0,5,2.2,5,5v4c0,2.8-2.2,5-5,5h-85c-2.8,0-5-2.2-5-5v-4
			C124,784.2,126.2,782,129,782z"/>
		<path id="Rechteck_46" class="st1" d="M228,782h60c2.8,0,5,2.2,5,5v4c0,2.8-2.2,5-5,5h-60c-2.8,0-5-2.2-5-5v-4
			C223,784.2,225.2,782,228,782z"/>
		<path id="Rechteck_45" class="st1" d="M128,799h103c2.8,0,5,2.2,5,5v4c0,2.8-2.2,5-5,5H128c-2.8,0-5-2.2-5-5v-4
			C123,801.2,125.2,799,128,799z"/>
		<path id="Rechteck_43" class="st1" d="M128,748h160c2.8,0,5,2.2,5,5v4c0,2.8-2.2,5-5,5H128c-2.8,0-5-2.2-5-5v-4
			C123,750.2,125.2,748,128,748z"/>
		<path id="Rechteck_41" class="st1" d="M156,837h103c2.8,0,5,2.2,5,5v10c0,2.8-2.2,5-5,5H156c-2.8,0-5-2.2-5-5v-10
			C151,839.2,153.2,837,156,837z"/>
	</g>
	<g id="Gruppe_28" transform="translate(146 -42)">
		
			<linearGradient id="Rechteck_35-2_00000110466037412210239890000006180295346673793187_" gradientUnits="userSpaceOnUse" x1="-137.7984" y1="1174.9368" x2="-137.7984" y2="1173.9368" gradientTransform="matrix(191 0 0 -237 26527 279096)">
			<stop  offset="0" style="stop-color:#E17824"/>
			<stop  offset="1" style="stop-color:#D55B21"/>
		</linearGradient>
		<path id="Rechteck_35-2" style="fill:url(#Rechteck_35-2_00000110466037412210239890000006180295346673793187_);" d="M139,636h137
			c14.9,0,27,12.1,27,27v183c0,14.9-12.1,27-27,27H139c-14.9,0-27-12.1-27-27V663C112,648.1,124.1,636,139,636z"/>
		<path id="Rechteck_36-2" class="st1" d="M156,653h103c2.8,0,5,2.2,5,5v4c0,2.8-2.2,5-5,5H156c-2.8,0-5-2.2-5-5v-4
			C151,655.2,153.2,653,156,653z"/>
		<path id="Rechteck_37-2" class="st1" d="M129,760h103c2.8,0,5,2.2,5,5v4c0,2.8-2.2,5-5,5H129c-2.8,0-5-2.2-5-5v-4
			C124,762.2,126.2,760,129,760z"/>
		<path id="Rechteck_38-2" class="st1" d="M129,777h33c2.8,0,5,2.2,5,5v4c0,2.8-2.2,5-5,5h-33c-2.8,0-5-2.2-5-5v-4
			C124,779.2,126.2,777,129,777z"/>
		<path id="Rechteck_40-2" class="st1" d="M182,777h98c2.8,0,5,2.2,5,5v4c0,2.8-2.2,5-5,5h-98c-2.8,0-5-2.2-5-5v-4
			C177,779.2,179.2,777,182,777z"/>
		<path id="Rechteck_39-2" class="st1" d="M129,794h103c2.8,0,5,2.2,5,5v4c0,2.8-2.2,5-5,5H129c-2.8,0-5-2.2-5-5v-4
			C124,796.2,126.2,794,129,794z"/>
		<path id="Rechteck_42-2" class="st1" d="M129,695h103c2.8,0,5,2.2,5,5v4c0,2.8-2.2,5-5,5H129c-2.8,0-5-2.2-5-5v-4
			C124,697.2,126.2,695,129,695z"/>
		<path id="Rechteck_44-2" class="st1" d="M129,712h85c2.8,0,5,2.2,5,5v4c0,2.8-2.2,5-5,5h-85c-2.8,0-5-2.2-5-5v-4
			C124,714.2,126.2,712,129,712z"/>
		<path id="Rechteck_46-2" class="st1" d="M228,712h60c2.8,0,5,2.2,5,5v4c0,2.8-2.2,5-5,5h-60c-2.8,0-5-2.2-5-5v-4
			C223,714.2,225.2,712,228,712z"/>
		<path id="Rechteck_45-2" class="st1" d="M128,729h103c2.8,0,5,2.2,5,5v4c0,2.8-2.2,5-5,5H128c-2.8,0-5-2.2-5-5v-4
			C123,731.2,125.2,729,128,729z"/>
		<path id="Rechteck_43-2" class="st1" d="M128,678h160c2.8,0,5,2.2,5,5v4c0,2.8-2.2,5-5,5H128c-2.8,0-5-2.2-5-5v-4
			C123,680.2,125.2,678,128,678z"/>
		<path id="Rechteck_41-2" class="st1" d="M156,837h103c2.8,0,5,2.2,5,5v10c0,2.8-2.2,5-5,5H156c-2.8,0-5-2.2-5-5v-10
			C151,839.2,153.2,837,156,837z"/>
		<g id="Rechteck_35-3" transform="translate(282 793)">
			
				<linearGradient id="SVGID_1_" gradientUnits="userSpaceOnUse" x1="-418.0636" y1="377.96" x2="-418.0636" y2="376.96" gradientTransform="matrix(55 0 0 -50 23021 18898)">
				<stop  offset="0" style="stop-color:#D55B21"/>
				<stop  offset="0.926" style="stop-color:#924C19"/>
				<stop  offset="1" style="stop-color:#864918"/>
			</linearGradient>
			<path class="st3" d="M25,0h5c13.8,0,25,11.2,25,25l0,0c0,13.8-11.2,25-25,25h-5C11.2,50,0,38.8,0,25l0,0C0,11.2,11.2,0,25,0z"/>
			<path class="st4" d="M25,1h5c13.3,0,24,10.7,24,24l0,0c0,13.3-10.7,24-24,24h-5C11.7,49,1,38.3,1,25l0,0C1,11.7,11.7,1,25,1z"/>
		</g>
		<g class="st5">
			<path class="st1" d="M314.8,806.6l-1,4.7c-1-1-2.4-1.5-4.2-1.5c-1.9,0-3.4,0.7-4.5,2c-0.6,0.8-1.1,1.7-1.4,2.8h9.4l-0.5,2.6h-9.2
				c0,0.3,0,0.6,0,1c0,0.4,0,0.8,0,1.2h8.7l-0.5,2.6h-7.8c0.3,1.2,0.7,2.2,1.3,2.9c1.1,1.3,2.6,2,4.4,2c2.2,0,3.9-0.7,5.2-2v5.2
				c-1.5,0.7-3.2,1.1-5.2,1.1c-3.3,0-6.1-1.1-8.2-3.4c-1.5-1.5-2.4-3.5-2.9-5.8h-2.5l0.5-2.6h1.7c0-0.3,0-0.6,0-0.9c0-0.5,0-1,0-1.4
				h-2.2l0.5-2.6h2c0.5-2.3,1.4-4.2,2.9-5.7c2.2-2.3,5-3.5,8.5-3.5C311.7,805.5,313.4,805.9,314.8,806.6z"/>
		</g>
	</g>
</g>
</svg>
