<?xml version="1.0" encoding="UTF-8"?>
<svg id="Ebene_1" data-name="Ebene 1" xmlns="http://www.w3.org/2000/svg" viewBox="0 0 286.765152571186263 260.039655136424699">
  <defs>
    <style>
      .cls-1 {
        fill: none;
      }

      .cls-1, .cls-2 {
        stroke: #d55b21;
        stroke-miterlimit: 10;
        stroke-width: 4px;
      }

      .cls-3 {
        isolation: isolate;
      }

      .cls-4, .cls-5 {
        stroke-width: 0px;
      }

      .cls-5, .cls-2 {
        fill: #d55b21;
      }

      .cls-2 {
        opacity: .2;
      }
    </style>
  </defs>
  <circle class="cls-1" cx="88.999999999999545" cy="171.039655136424699" r="86.999999999999758"/>
  <circle class="cls-1" cx="143.255254951301595" cy="88.999999999998636" r="86.999999999999531"/>
  <circle class="cls-1" cx="197.765152571186491" cy="171.039655136425154" r="86.999999999999432"/>
  <g class="cls-3">
    <path class="cls-4" d="M104.108770576302049,56.483000998714488v-10.7373046875h2.16796875v4.7685546875l4.3798828125-4.7685546875h2.9150390625l-4.04296875,4.1826171875,4.2626953125,6.5546875h-2.80517578125l-2.95166015625-5.0390625-1.7578125,1.794921875v3.244140625h-2.16796875Z"/>
    <path class="cls-4" d="M116.867559638802049,56.483000998714488h-2.05810546875v-7.7783203125h1.91162109375v1.1064453125c.3271484375-.5224609375.62109375-.8671875.8828125-1.033203125.2607421875-.166015625.5576171875-.2490234375.8896484375-.2490234375.46875,0,.92041015625.1298828125,1.35498046875.3876953125l-.63720703125,1.794921875c-.3466796875-.224609375-.6689453125-.3369140625-.966796875-.3369140625-.2880859375,0-.5322265625.0791015625-.732421875.23828125-.2001953125.158203125-.35791015625.4453125-.47265625.8603515625s-.171875,1.2841796875-.171875,2.607421875v2.40234375Z"/>
    <path class="cls-4" d="M125.239141670052049,54.007415061214488l2.05078125.3447265625c-.263671875.751953125-.68017578125,1.32421875-1.2490234375,1.716796875-.56884765625.3935546875-1.2802734375.58984375-2.134765625.58984375-1.3525390625,0-2.353515625-.44140625-3.0029296875-1.326171875-.5126953125-.70703125-.76904296875-1.6005859375-.76904296875-2.6796875,0-1.2890625.3369140625-2.298828125,1.0107421875-3.029296875.673828125-.7294921875,1.52587890625-1.0947265625,2.55615234375-1.0947265625,1.1572265625,0,2.0703125.3818359375,2.7392578125,1.146484375.6689453125.763671875.98876953125,1.9345703125.95947265625,3.51171875h-5.15625c.0146484375.6103515625.1806640625,1.0849609375.498046875,1.4248046875.3173828125.3388671875.712890625.5087890625,1.1865234375.5087890625.322265625,0,.59326171875-.087890625.81298828125-.263671875s.3857421875-.458984375.498046875-.849609375ZM125.356329170052049,51.927336936214488c-.0146484375-.595703125-.16845703125-1.048828125-.46142578125-1.3583984375-.29296875-.310546875-.6494140625-.46484375-1.0693359375-.46484375-.44921875,0-.8203125.1630859375-1.11328125.490234375s-.43701171875.771484375-.43212890625,1.3330078125h3.076171875Z"/>
    <path class="cls-4" d="M130.615118232552049,51.077727561214488l-1.86767578125-.3369140625c.2099609375-.751953125.5712890625-1.30859375,1.083984375-1.669921875s1.2744140625-.5419921875,2.28515625-.5419921875c.91796875,0,1.6015625.1083984375,2.05078125.326171875.44921875.216796875.765625.4931640625.9482421875.8271484375.18359375.3349609375.27490234375.94921875.27490234375,1.841796875l-.02197265625,2.40234375c0,.6845703125.033203125,1.1884765625.0986328125,1.5126953125.06640625.3251953125.189453125.6728515625.3701171875,1.0439453125h-2.0361328125c-.0537109375-.13671875-.11962890625-.3388671875-.19775390625-.607421875-.0341796875-.1220703125-.05859375-.203125-.0732421875-.2421875-.3515625.341796875-.7275390625.5986328125-1.1279296875.76953125-.400390625.169921875-.82763671875.255859375-1.28173828125.255859375-.80078125,0-1.431640625-.216796875-1.8935546875-.65234375-.4609375-.43359375-.69189453125-.9833984375-.69189453125-1.6474609375,0-.439453125.10498046875-.8310546875.31494140625-1.17578125.2099609375-.34375.50390625-.607421875.8828125-.791015625.3779296875-.1826171875.923828125-.3427734375,1.63671875-.4794921875.9619140625-.1806640625,1.62841796875-.3486328125,1.99951171875-.505859375v-.205078125c0-.39453125-.09765625-.6767578125-.29296875-.845703125-.1953125-.16796875-.56396484375-.251953125-1.10595703125-.251953125-.3662109375,0-.65185546875.0712890625-.85693359375.2158203125-.205078125.1435546875-.37109375.396484375-.498046875.7578125ZM133.369024482552049,52.747649436214488c-.263671875.087890625-.68115234375.193359375-1.25244140625.3154296875s-.94482421875.2412109375-1.12060546875.3583984375c-.2685546875.1904296875-.40283203125.4326171875-.40283203125.7255859375,0,.2880859375.107421875.537109375.322265625.74609375.21484375.2109375.48828125.3154296875.8203125.3154296875.37109375,0,.72509765625-.1220703125,1.06201171875-.3662109375.2490234375-.185546875.41259765625-.412109375.49072265625-.681640625.0537109375-.17578125.08056640625-.509765625.08056640625-1.0029296875v-.41015625Z"/>
    <path class="cls-4" d="M140.986211982552049,48.704680686214488v1.640625h-1.40625v3.134765625c0,.634765625.01318359375,1.0048828125.0400390625,1.109375.02685546875.10546875.087890625.1923828125.18359375.2607421875.0947265625.068359375.2109375.1015625.34765625.1015625.1904296875,0,.46630859375-.0654296875.82763671875-.197265625l.17578125,1.5966796875c-.478515625.205078125-1.0205078125.3076171875-1.6259765625.3076171875-.37109375,0-.70556640625-.0625-1.00341796875-.1865234375-.2978515625-.125-.5166015625-.2861328125-.6552734375-.4833984375-.1396484375-.1982421875-.23583984375-.46484375-.28955078125-.802734375-.0439453125-.23828125-.06591796875-.7216796875-.06591796875-1.44921875v-3.3916015625h-.94482421875v-1.640625h.94482421875v-1.5458984375l2.0654296875-1.201171875v2.7470703125h1.40625Z"/>
    <path class="cls-4" d="M142.414434638802049,47.649993186214488v-1.904296875h2.05859375v1.904296875h-2.05859375ZM142.414434638802049,56.483000998714488v-7.7783203125h2.05859375v7.7783203125h-2.05859375Z"/>
    <path class="cls-4" d="M148.721075263802049,56.483000998714488l-3.134765625-7.7783203125h2.16015625l1.46484375,3.9697265625.4248046875,1.326171875c.1123046875-.337890625.18359375-.5595703125.212890625-.6669921875.068359375-.2197265625.1416015625-.439453125.2197265625-.6591796875l1.4794921875-3.9697265625h2.1162109375l-3.0908203125,7.7783203125h-1.8525390625Z"/>
    <path class="cls-4" d="M154.924200263802049,47.649993186214488v-1.904296875h2.05859375v1.904296875h-2.05859375ZM154.924200263802049,56.483000998714488v-7.7783203125h2.05859375v7.7783203125h-2.05859375Z"/>
    <path class="cls-4" d="M162.658575263802049,48.704680686214488v1.640625h-1.40625v3.134765625c0,.634765625.013671875,1.0048828125.0400390625,1.109375.02734375.10546875.087890625.1923828125.18359375.2607421875.0947265625.068359375.2109375.1015625.34765625.1015625.1904296875,0,.466796875-.0654296875.828125-.197265625l.17578125,1.5966796875c-.478515625.205078125-1.0205078125.3076171875-1.6259765625.3076171875-.37109375,0-.7060546875-.0625-1.00390625-.1865234375-.2978515625-.125-.5166015625-.2861328125-.6552734375-.4833984375-.1396484375-.1982421875-.2353515625-.46484375-.2890625-.802734375-.0439453125-.23828125-.06640625-.7216796875-.06640625-1.44921875v-3.3916015625h-.9443359375v-1.640625h.9443359375v-1.5458984375l2.0654296875-1.201171875v2.7470703125h1.40625Z"/>
    <path class="cls-4" d="M165.625372138802049,51.077727561214488l-1.8681640625-.3369140625c.2099609375-.751953125.5712890625-1.30859375,1.083984375-1.669921875s1.2744140625-.5419921875,2.28515625-.5419921875c.91796875,0,1.6015625.1083984375,2.05078125.326171875.44921875.216796875.765625.4931640625.9482421875.8271484375.18359375.3349609375.275390625.94921875.275390625,1.841796875l-.0224609375,2.40234375c0,.6845703125.033203125,1.1884765625.0986328125,1.5126953125.06640625.3251953125.189453125.6728515625.3701171875,1.0439453125h-2.0361328125c-.0537109375-.13671875-.119140625-.3388671875-.197265625-.607421875-.0341796875-.1220703125-.05859375-.203125-.0732421875-.2421875-.3515625.341796875-.7275390625.5986328125-1.1279296875.76953125-.400390625.169921875-.828125.255859375-1.2822265625.255859375-.80078125,0-1.431640625-.216796875-1.8935546875-.65234375-.4609375-.43359375-.69140625-.9833984375-.69140625-1.6474609375,0-.439453125.1044921875-.8310546875.314453125-1.17578125.2099609375-.34375.50390625-.607421875.8828125-.791015625.3779296875-.1826171875.923828125-.3427734375,1.63671875-.4794921875.9619140625-.1806640625,1.62890625-.3486328125,2-.505859375v-.205078125c0-.39453125-.09765625-.6767578125-.29296875-.845703125-.1953125-.16796875-.564453125-.251953125-1.1064453125-.251953125-.3662109375,0-.6513671875.0712890625-.8564453125.2158203125-.205078125.1435546875-.37109375.396484375-.498046875.7578125ZM164.738653388802049,47.327727561214488v-1.7646484375h1.765625v1.7646484375h-1.765625ZM168.379278388802049,52.747649436214488c-.263671875.087890625-.681640625.193359375-1.2529296875.3154296875s-.9443359375.2412109375-1.1201171875.3583984375c-.2685546875.1904296875-.4033203125.4326171875-.4033203125.7255859375,0,.2880859375.107421875.537109375.322265625.74609375.21484375.2109375.48828125.3154296875.8203125.3154296875.37109375,0,.7255859375-.1220703125,1.0625-.3662109375.2490234375-.185546875.412109375-.412109375.490234375-.681640625.0537109375-.17578125.0810546875-.509765625.0810546875-1.0029296875v-.41015625ZM167.888067451302049,47.327727561214488v-1.7646484375h1.7724609375v1.7646484375h-1.7724609375Z"/>
    <path class="cls-4" d="M175.996465888802049,48.704680686214488v1.640625h-1.40625v3.134765625c0,.634765625.0126953125,1.0048828125.0400390625,1.109375.0263671875.10546875.087890625.1923828125.18359375.2607421875.0947265625.068359375.2109375.1015625.34765625.1015625.1904296875,0,.4658203125-.0654296875.8271484375-.197265625l.17578125,1.5966796875c-.478515625.205078125-1.0205078125.3076171875-1.6259765625.3076171875-.37109375,0-.705078125-.0625-1.0029296875-.1865234375-.2978515625-.125-.5166015625-.2861328125-.6552734375-.4833984375-.1396484375-.1982421875-.236328125-.46484375-.2900390625-.802734375-.0439453125-.23828125-.0654296875-.7216796875-.0654296875-1.44921875v-3.3916015625h-.9453125v-1.640625h.9453125v-1.5458984375l2.0654296875-1.201171875v2.7470703125h1.40625Z"/>
  </g>
  <g class="cls-3">
    <path class="cls-4" d="M35.372930732552049,195.483000998714488v-10.7373046875h2.16796875v4.7685546875l4.3798828125-4.7685546875h2.9150390625l-4.04296875,4.1826171875,4.2626953125,6.5546875h-2.80517578125l-2.95166015625-5.0390625-1.7578125,1.794921875v3.244140625h-2.16796875Z"/>
    <path class="cls-4" d="M51.281133857552049,195.483000998714488v-1.1640625c-.283203125.4150390625-.6552734375.7421875-1.1171875.98046875-.4609375.2392578125-.9482421875.359375-1.4609375.359375-.5224609375,0-.9912109375-.115234375-1.40625-.34375-.4150390625-.2294921875-.71533203125-.5517578125-.90087890625-.966796875s-.2783203125-.9892578125-.2783203125-1.7216796875v-4.921875h2.05810546875v3.57421875c0,1.09375.03759765625,1.763671875.11328125,2.0107421875.07568359375.24609375.2138671875.44140625.4140625.5859375.2001953125.1435546875.4541015625.2158203125.76171875.2158203125.3515625,0,.66650390625-.0966796875.94482421875-.2890625.2783203125-.193359375.46875-.4326171875.5712890625-.7177734375.1025390625-.2861328125.15380859375-.9853515625.15380859375-2.0986328125v-3.28125h2.05810546875v7.7783203125h-1.91162109375Z"/>
    <path class="cls-4" d="M62.399297920052049,195.483000998714488h-2.05810546875v-3.9697265625c0-.83984375-.0439453125-1.3828125-.1318359375-1.6298828125-.087890625-.24609375-.23046875-.4375-.4287109375-.57421875-.197265625-.13671875-.435546875-.205078125-.7138671875-.205078125-.3564453125,0-.67626953125.09765625-.95947265625.29296875s-.4775390625.453125-.58251953125.775390625-.1572265625.9189453125-.1572265625,1.787109375v3.5234375h-2.05810546875v-7.7783203125h1.91162109375v1.142578125c.6787109375-.87890625,1.533203125-1.318359375,2.5634765625-1.318359375.4541015625,0,.869140625.08203125,1.2451171875.2451171875.3759765625.1640625.66015625.373046875.853515625.626953125.1923828125.25390625.32666015625.541015625.40234375.86328125s.11376953125.7841796875.11376953125,1.384765625v4.833984375Z"/>
    <path class="cls-4" d="M71.620489326302049,195.483000998714488h-1.91162109375v-1.142578125c-.3173828125.4443359375-.6923828125.775390625-1.1240234375.9921875-.4326171875.2177734375-.8681640625.326171875-1.3076171875.326171875-.8935546875,0-1.6591796875-.3603515625-2.2958984375-1.080078125-.6376953125-.720703125-.9560546875-1.724609375-.9560546875-3.013671875,0-1.318359375.31005859375-2.3212890625.93017578125-3.0068359375.6201171875-.6865234375,1.40380859375-1.029296875,2.35107421875-1.029296875.869140625,0,1.62109375.361328125,2.255859375,1.083984375v-3.8671875h2.05810546875v10.7373046875ZM66.127325263802049,191.425383811214488c0,.830078125.11474609375,1.4306640625.34423828125,1.8017578125.33203125.537109375.7958984375.8056640625,1.3916015625.8056640625.4736328125,0,.87646484375-.201171875,1.20849609375-.6044921875.33203125-.40234375.498046875-1.00390625.498046875-1.8046875,0-.89453125-.1611328125-1.537109375-.4833984375-1.9306640625-.322265625-.392578125-.73486328125-.5888671875-1.23779296875-.5888671875-.48828125,0-.8974609375.193359375-1.2265625.58203125-.330078125.3876953125-.49462890625.9677734375-.49462890625,1.7392578125Z"/>
    <path class="cls-4" d="M78.153692451302049,193.007415061214488l2.05078125.3447265625c-.263671875.751953125-.68017578125,1.32421875-1.2490234375,1.716796875-.56884765625.3935546875-1.2802734375.58984375-2.134765625.58984375-1.3525390625,0-2.353515625-.44140625-3.0029296875-1.326171875-.5126953125-.70703125-.76904296875-1.6005859375-.76904296875-2.6796875,0-1.2890625.3369140625-2.298828125,1.0107421875-3.029296875.673828125-.7294921875,1.52587890625-1.0947265625,2.55615234375-1.0947265625,1.1572265625,0,2.0703125.3818359375,2.7392578125,1.146484375.6689453125.763671875.98876953125,1.9345703125.95947265625,3.51171875h-5.15625c.0146484375.6103515625.1806640625,1.0849609375.498046875,1.4248046875.3173828125.3388671875.712890625.5087890625,1.1865234375.5087890625.322265625,0,.59326171875-.087890625.81298828125-.263671875s.3857421875-.458984375.498046875-.849609375ZM78.270879951302049,190.927336936214488c-.0146484375-.595703125-.16845703125-1.048828125-.46142578125-1.3583984375-.29296875-.310546875-.6494140625-.46484375-1.0693359375-.46484375-.44921875,0-.8203125.1630859375-1.11328125.490234375s-.43701171875.771484375-.43212890625,1.3330078125h3.076171875Z"/>
    <path class="cls-4" d="M89.066778388802049,195.483000998714488h-2.05810546875v-3.9697265625c0-.83984375-.0439453125-1.3828125-.1318359375-1.6298828125-.087890625-.24609375-.23046875-.4375-.4287109375-.57421875-.197265625-.13671875-.435546875-.205078125-.7138671875-.205078125-.3564453125,0-.67626953125.09765625-.95947265625.29296875s-.4775390625.453125-.58251953125.775390625-.1572265625.9189453125-.1572265625,1.787109375v3.5234375h-2.05810546875v-7.7783203125h1.91162109375v1.142578125c.6787109375-.87890625,1.533203125-1.318359375,2.5634765625-1.318359375.4541015625,0,.869140625.08203125,1.2451171875.2451171875.3759765625.1640625.66015625.373046875.853515625.626953125.1923828125.25390625.32666015625.541015625.40234375.86328125s.11376953125.7841796875.11376953125,1.384765625v4.833984375Z"/>
  </g>
  <g class="cls-3">
    <path class="cls-4" d="M209.754278388802049,195.483000998714488v-10.7373046875h3.2451171875l1.947265625,7.32421875,1.9267578125-7.32421875h3.251953125v10.7373046875h-2.0146484375v-8.4521484375l-2.130859375,8.4521484375h-2.087890625l-2.123046875-8.4521484375v8.4521484375h-2.0146484375Z"/>
    <path class="cls-4" d="M223.802129951302049,190.077727561214488l-1.8671875-.3369140625c.208984375-.751953125.5703125-1.30859375,1.083984375-1.669921875.51171875-.361328125,1.2734375-.5419921875,2.28515625-.5419921875.91796875,0,1.6015625.1083984375,2.05078125.326171875.44921875.216796875.765625.4931640625.947265625.8271484375.18359375.3349609375.275390625.94921875.275390625,1.841796875l-.021484375,2.40234375c0,.6845703125.033203125,1.1884765625.09765625,1.5126953125.06640625.3251953125.189453125.6728515625.37109375,1.0439453125h-2.037109375c-.052734375-.13671875-.119140625-.3388671875-.197265625-.607421875-.0341796875-.1220703125-.05859375-.203125-.0732421875-.2421875-.3515625.341796875-.7275390625.5986328125-1.1279296875.76953125-.400390625.169921875-.828125.255859375-1.28125.255859375-.80078125,0-1.431640625-.216796875-1.89453125-.65234375-.4609375-.43359375-.69140625-.9833984375-.69140625-1.6474609375,0-.439453125.10546875-.8310546875.314453125-1.17578125.2109375-.34375.50390625-.607421875.8828125-.791015625.37890625-.1826171875.923828125-.3427734375,1.63671875-.4794921875.962890625-.1806640625,1.62890625-.3486328125,2-.505859375v-.205078125c0-.39453125-.09765625-.6767578125-.29296875-.845703125-.1953125-.16796875-.564453125-.251953125-1.10546875-.251953125-.3671875,0-.65234375.0712890625-.857421875.2158203125-.205078125.1435546875-.37109375.396484375-.498046875.7578125ZM226.556036201302049,191.747649436214488c-.263671875.087890625-.681640625.193359375-1.251953125.3154296875-.572265625.1220703125-.9453125.2412109375-1.12109375.3583984375-.2685546875.1904296875-.40234375.4326171875-.40234375.7255859375,0,.2880859375.107421875.537109375.322265625.74609375.21484375.2109375.48828125.3154296875.8203125.3154296875.37109375,0,.724609375-.1220703125,1.0615234375-.3662109375.2490234375-.185546875.4130859375-.412109375.4912109375-.681640625.052734375-.17578125.080078125-.509765625.080078125-1.0029296875v-.41015625Z"/>
    <path class="cls-4" d="M232.576544013802049,195.483000998714488h-2.0576171875v-7.7783203125h1.9111328125v1.1064453125c.3271484375-.5224609375.62109375-.8671875.8828125-1.033203125.2607421875-.166015625.5576171875-.2490234375.8896484375-.2490234375.46875,0,.919921875.1298828125,1.35546875.3876953125l-.6376953125,1.794921875c-.3466796875-.224609375-.6689453125-.3369140625-.966796875-.3369140625-.2880859375,0-.5322265625.0791015625-.732421875.23828125-.2001953125.158203125-.3583984375.4453125-.47265625.8603515625s-.171875,1.2841796875-.171875,2.607421875v2.40234375Z"/>
    <path class="cls-4" d="M236.370489326302049,195.483000998714488v-10.7373046875h2.05859375v5.6982421875l2.4091796875-2.7392578125h2.5341796875l-2.658203125,2.841796875,2.8486328125,4.9365234375h-2.2197265625l-1.955078125-3.494140625-.958984375,1.00390625v2.490234375h-2.05859375Z"/>
    <path class="cls-4" d="M248.352911201302049,187.704680686214488v1.640625h-1.40625v3.134765625c0,.634765625.013671875,1.0048828125.0400390625,1.109375.0263671875.10546875.087890625.1923828125.18359375.2607421875.0947265625.068359375.2109375.1015625.34765625.1015625.1904296875,0,.4658203125-.0654296875.8271484375-.197265625l.17578125,1.5966796875c-.478515625.205078125-1.01953125.3076171875-1.625.3076171875-.37109375,0-.7060546875-.0625-1.00390625-.1865234375-.2978515625-.125-.5166015625-.2861328125-.6552734375-.4833984375-.1396484375-.1982421875-.2353515625-.46484375-.2900390625-.802734375-.04296875-.23828125-.0654296875-.7216796875-.0654296875-1.44921875v-3.3916015625h-.9443359375v-1.640625h.9443359375v-1.5458984375l2.0654296875-1.201171875v2.7470703125h1.40625Z"/>
  </g>
  <circle class="cls-2" cx="89.000000000000455" cy="171.039655136426063" r="83.377763520441022"/>
  <circle class="cls-2" cx="197.765152571185126" cy="171.039655136426063" r="83.377763520440681"/>
  <circle class="cls-2" cx="143.255254951300913" cy="88.999999999999545" r="83.377763520440681"/>
  <path class="cls-5" d="M143.211782661262987,103.352568869808238c-7.525558471679688-.036346435546875-12.901107788085938,10.81634521484375-23.652183532714844,32.521736145019531-12.08819580078125,24.404891967773438-9.695343017578125,30.460365295410156-7.652168273925781,33.043479919433594,1.443038940429688,1.824386596679688,3.242530822753906,2.516441345214844,6.782608032226562,3.826087951660156,8.802688598632812,3.256538391113281,15.8919677734375,2.881790161132812,28.347824096679688,2.2608642578125,21.308670043945312-1.062240600585938,25.725250244140625-1.219924926757812,27.826080322265625-4.869560241699219,1.388839721679688-2.412750244140625.9896240234375-5.003562927246094.173919677734375-8.86956787109375-3.3626708984375-15.937187194824219-5.04400634765625-23.905776977539062-11.652175903320312-35.13043212890625-8.605545043945312-14.617416381835938-13.393280029296875-22.749862670898438-20.173904418945312-22.782608032226562Z"/>
</svg>