<svg xmlns="http://www.w3.org/2000/svg" xmlns:xlink="http://www.w3.org/1999/xlink" width="518" height="281" viewBox="0 0 518 281">
  <defs>
    <linearGradient id="linear-gradient" x1="0.5" x2="0.5" y2="1" gradientUnits="objectBoundingBox">
      <stop offset="0" stop-color="#a3a3a3"/>
      <stop offset="1" stop-color="#3e3e3e"/>
    </linearGradient>
    <linearGradient id="linear-gradient-2" x1="0.5" x2="0.5" y2="1" gradientUnits="objectBoundingBox">
      <stop offset="0" stop-color="#e17824"/>
      <stop offset="1" stop-color="#d55b21"/>
    </linearGradient>
  </defs>
  <g id="Gruppe_33" data-name="Gruppe 33" transform="translate(-1354.792 -679.927)">
    <g id="Gruppe_32" data-name="Gruppe 32" transform="translate(1354.792 723.927)" style="isolation: isolate">
      <rect id="Rechteck_35" data-name="Rechteck 35" width="428" height="237" rx="27" fill="url(#linear-gradient)"/>
      <rect id="Rechteck_36" data-name="Rechteck 36" width="376" height="32" rx="11" transform="translate(26 17)" fill="rgba(255,255,255,0.68)"/>
      <rect id="Rechteck_47" data-name="Rechteck 47" width="376" height="54" rx="11" transform="translate(26 75)" fill="rgba(255,255,255,0.68)"/>
      <rect id="Rechteck_48" data-name="Rechteck 48" width="336" height="54" rx="11" transform="translate(66 136)" fill="rgba(255,255,255,0.68)"/>
    </g>
    <g id="Gruppe_31" data-name="Gruppe 31" transform="translate(1444.792 680)" style="isolation: isolate">
      <rect id="Rechteck_35-2" data-name="Rechteck 35" width="428" height="237" rx="27" transform="translate(0 -0.073)" fill="url(#linear-gradient-2)"/>
      <rect id="Rechteck_36-2" data-name="Rechteck 36" width="376" height="32" rx="11" transform="translate(26 16.927)" fill="rgba(255,255,255,0.68)"/>
      <rect id="Rechteck_47-2" data-name="Rechteck 47" width="376" height="108" rx="11" transform="translate(26 64.927)" fill="rgba(255,255,255,0.68)"/>
      <path id="Pfad_46" data-name="Pfad 46" d="M1744.877,4591.072s-65.116,38.794-27.4,23.345,11.389-12.624,15.186-16.832,26.4-8.8,26.4-8.8-22.455,17.648-4.517,14.64,18.559-9.784,10.4-7.391-3.472,7-2.594,10.08,2.158,9.649,8.816,11.694,12.166-5.848,12.166-8.072-8.457-7.627-10.633-3.622-3.285,9.2,3.02,5.908,9.827-4.948,10.647-11.678" transform="translate(-1389 -4399)" fill="rgba(255,255,255,0)" stroke="#e17824" stroke-width="2"/>
    </g>
  </g>
</svg>
